# xmcd CD database file generated by OrangeCD 5.0
#
# Track frame offsets:
#	150
#	13404
#	26413
#	38231
#	49953
#	60171
#	73790
#	87516
#	98539
#	111417
#	122152
#	135201
#	148538
#	161271
#	174543
#	191183
#	203681
#	217321
#	231089
#	243879
#	255674
#	269894
#	283468
#	297686
#
# Disc length: 4155 seconds
#
# Revision: 0
# Processed by: cddbd v1.4PL0 Copyright (c) Steve Scherf et al.
# Submitted via: OrangeCD 5.0
#
DISCID=78103918
DTITLE=Brown, Charles - The Classic Earliest Recordings (1948-50, Los Angeles) 
DTITLE=[CDFive)
DYEAR=2003
DGENRE=Blues
TTITLE0=Wonder When My Baby's Comin' Home
TTITLE1=Dedicated To You
TTITLE2=What A Life
TTITLE3=How High The Moon
TTITLE4=Oh! Ooh! Sugar
TTITLE5=Get Yourself Another Fool
TTITLE6=Baby Do You Know The Game
TTITLE7=In The Evening When The Sun Goes Down
TTITLE8=It's Nothing
TTITLE9=Trouble Blues
TTITLE10=I Don't Care Who Knows
TTITLE11=When You're Alone
TTITLE12=Please Be Kind
TTITLE13=A Long Time
TTITLE14=So Mistreated
TTITLE15=Tormented
TTITLE16=Alley Baiting
TTITLE17=I Stumbled Over You
TTITLE18=Take Me
TTITLE19=Let's Have A Ball
TTITLE20=Did You Ever Love A Woman
TTITLE21=My Baby's Gone
TTITLE22=Again
TTITLE23=Gee
EXTD=
EXTT0=
EXTT1=
EXTT2=
EXTT3=
EXTT4=
EXTT5=
EXTT6=
EXTT7=
EXTT8=
EXTT9=
EXTT10=
EXTT11=
EXTT12=
EXTT13=
EXTT14=
EXTT15=
EXTT16=
EXTT17=
EXTT18=
EXTT19=
EXTT20=
EXTT21=
EXTT22=
EXTT23=
PLAYORDER=
